<?xml version="1.0" encoding="utf-8"?>
<!-- Generator: Adobe Illustrator 15.0.0, SVG Export Plug-In . SVG Version: 6.00 Build 0)  -->
<!DOCTYPE svg PUBLIC "-//W3C//DTD SVG 1.1//EN" "http://www.w3.org/Graphics/SVG/1.1/DTD/svg11.dtd">
<svg version="1.1" id="Calque_1" xmlns="http://www.w3.org/2000/svg" xmlns:xlink="http://www.w3.org/1999/xlink" x="0px" y="0px"
	 width="191.628px" height="309.758px" viewBox="0 0 191.628 309.758" enable-background="new 0 0 191.628 309.758"
	 xml:space="preserve">
<path fill="#42B883" d="M91.122,309.758c-33.502,0-60.659-27.158-60.659-60.658c0-32.976,26.317-59.787,59.093-60.62
	c-16.035,0.81-28.789,13.986-28.789,30.226c0,16.764,13.576,30.396,30.339,30.396c16.773,0,30.37-13.598,30.37-30.371
	c0-16.772-13.597-30.371-30.37-30.371H0V66.863C0,33.333,27.197,6.147,60.735,6.147v121.477h30.37
	c50.315,0,91.105,40.788,91.105,91.106C182.211,269.047,141.438,309.758,91.122,309.758z"/>
<path fill="#3B3835" d="M97.853,308.563c-34.986,0-63.449-28.463-63.449-63.449c0-25.429,15.043-47.417,36.696-57.529H4.044V63.506
	C4.044,28.489,32.542,0,67.57,0h3v121.058h27.266c51.717,0,93.792,42.075,93.792,93.792
	C191.628,266.523,149.561,308.563,97.853,308.563z M72.25,193.691c-18.864,9.431-31.846,28.94-31.846,51.422
	c0,31.678,25.771,57.449,57.449,57.449c48.399,0,87.775-39.348,87.775-87.713c0-48.408-39.384-87.792-87.792-87.792H64.57V6.077
	C34.24,7.644,10.044,32.803,10.044,63.506v118.078h87.792c18.343,0,33.266,14.923,33.266,33.266s-14.923,33.266-33.266,33.266
	c-18.326,0-33.234-14.935-33.234-33.291C64.602,206.802,67.475,199.434,72.25,193.691z M97.83,187.584v0.079
	c-15.014,0.012-27.229,12.196-27.229,27.161c0,15.048,12.217,27.291,27.234,27.291c15.034,0,27.266-12.231,27.266-27.266
	c0-15.028-12.223-27.257-27.249-27.266v0.079v-0.079c-0.006,0-0.011,0-0.017,0H97.83z M97.827,181.956l0.001,2.509l0.004-1.466
	L97.827,181.956z"/>
</svg>
