<?xml version="1.0" encoding="utf-8"?>
<!-- Generator: Adobe Illustrator 15.0.0, SVG Export Plug-In . SVG Version: 6.00 Build 0)  -->
<!DOCTYPE svg PUBLIC "-//W3C//DTD SVG 1.1//EN" "http://www.w3.org/Graphics/SVG/1.1/DTD/svg11.dtd">
<svg version="1.1" id="Calque_1" xmlns="http://www.w3.org/2000/svg" xmlns:xlink="http://www.w3.org/1999/xlink" x="0px" y="0px"
	 width="28.321px" height="28.32px" viewBox="0 0 28.321 28.32" enable-background="new 0 0 28.321 28.32" xml:space="preserve">
<path fill="#0A2B4E" d="M28.321,0H0v21.389c0,3.813,3.119,6.932,6.932,6.932h14.458c3.813,0,6.932-3.119,6.932-6.932V0z
	 M14.161,24.155c-2.206,0-3.994-1.788-3.994-3.993c0-2.172,1.732-3.938,3.891-3.992c-1.056,0.054-1.896,0.922-1.896,1.99
	c0,1.104,0.894,2.002,1.998,2.002c1.104,0,2-0.896,2-2c0-1.104-0.896-2-2-2H8.162v-8c0-2.208,1.791-3.998,3.999-3.998v7.998h2
	c3.313,0,5.999,2.686,5.999,5.999C20.159,21.475,17.474,24.155,14.161,24.155z"/>
</svg>
